<svg xmlns="http://www.w3.org/2000/svg" enable-background="new 0 0 55.28 55.28" version="1.1" viewBox="0 0 55.28 55.28" xml:space="preserve">
<style type="text/css">
	.st0{fill:#E6E6E6;}
	.st1{fill:#4D4D4D;}
	.st2{opacity:0.9;}
	.st3{fill:#1976D2;}
	.st4{opacity:0.8;}
	.st5{fill:#FFC233;}
	.st6{fill:#666666;}
	.st7{fill:#B3B3B3;}
</style>
	<g class="st2">
		<path class="st3" d="m51 48.66c5.57-5.91 5.57-15.5 0-21.41l-3.56-3.78c-1.67-1.78-1.67-4.65 0-6.42 0.78-0.82 1.75-1.26 2.76-1.33 1.03-0.04 2.03-0.48 2.81-1.32 1.67-1.78 1.67-4.65 0-6.42-10.02-10.64-26.28-10.64-36.3 0s-10.02 27.9 0 38.54 25.38 11.61 34.29 2.14z"/>
	</g>
	<g class="st4">
		<path class="st5" d="m9.2 55.28c5.08 0 9.2-4.12 9.2-9.2v-9.2c0-5.08-4.12-9.2-9.2-9.2s-9.2 4.12-9.2 9.2v9.2c0 5.09 4.12 9.2 9.2 9.2z"/>
		<path class="st5" d="m10.87 3.47l6.16 12.32c0.62 1.25-0.28 2.72-1.68 2.72h-12.31c-1.39 0-2.3-1.47-1.68-2.72l6.16-12.32c0.69-1.39 2.66-1.39 3.35 0z"/>
	</g>
</svg>