<?xml version="1.0" encoding="UTF-8"?>
<svg enable-background="new 0 0 152.61 55.28" version="1.1" viewBox="0 0 152.61 55.28" xml:space="preserve" xmlns="http://www.w3.org/2000/svg">
<style type="text/css">
	.st0{fill:#E6E6E6;}
	.st1{fill:#4D4D4D;}
	.st2{opacity:0.9;}
	.st3{fill:#1976D2;}
	.st4{opacity:0.8;}
	.st5{fill:#FFC233;}
	.st6{fill:#666666;}
	.st7{fill:#B3B3B3;}
</style>
		<path class="st6" d="m84.87 52.2c-1.1 0.56-2.29 0.34-3.13-0.58-0.24-0.26-0.45-0.54-0.66-0.83-1.05-1.5-1.83-3.19-3.12-4.54-0.23-0.24-0.05-0.35 0.15-0.49 0.7-0.5 1.33-1.06 1.63-1.88 0.72-1.94-0.15-4.01-2.24-5-3.01-1.44-6.01-1.06-8.95 0.26-0.43 0.19-0.83 0.47-1.1 0.87s-0.16 0.78 0.09 1.14c0.28 0.4 0.53 0.03 0.77-0.06 0.71-0.26 1.1-0.07 1.2 0.69 0.09 0.68-0.01 1.35-0.12 2.03-0.23 1.48-0.72 2.91-0.65 4.43 0 0.35-0.03 0.7 0 1.05 0.12 1.32 0.98 1.95 2.3 1.68 0.37-0.07 0.72-0.21 1.08-0.3 0.38-0.1 0.53-0.27 0.45-0.7-0.38-2.03-0.16-4.06 0.09-6.09 0.13-1.04 0.33-2.08 0.18-3.14-0.09-0.62-0.04-0.7 0.62-0.71 2.18-0.06 3.55 2.11 2.69 4.24-0.19 0.47-0.39 0.86-1.03 0.55-0.18-0.09-0.43-0.04-0.65-0.04-0.84 0.02-1.53 0.69-1.45 1.38 0.1 0.84 0.92 1.42 1.77 1.19 0.38-0.1 0.55 0.02 0.73 0.28 0.51 0.77 0.91 1.59 1.3 2.42 0.58 1.21 1.11 2.45 1.97 3.52 1.55 1.9 4.33 2.27 6.08 0.78 0.51-0.44 0.87-0.96 0.83-1.67 0-0.56-0.32-0.74-0.83-0.48z"/>
		<path class="st6" d="m95.62 48.71c-0.77 0.41-1.26 0.2-1.43-0.64-0.1-0.48-0.18-0.95-0.2-1.44-0.09-1.99 0.17-3.9 1-5.74 0.54-1.19-0.08-2.44-1.3-2.97-0.85-0.37-1.37-0.19-1.83 0.6-0.31 0.55-0.46 1.15-0.68 1.74-0.25-0.16-0.25-0.41-0.33-0.62-0.37-1.03-1.28-1.67-2.4-1.69-1.43-0.02-2.57 0.58-3.52 1.57-1.49 1.54-2.12 3.45-2.27 5.51-0.12 1.57 0.1 3.11 1.05 4.46 1.22 1.73 4.45 2.32 6.03 0.1 0.28-0.39 0.48-0.83 0.73-1.26 0.18 0.11 0.19 0.27 0.23 0.41 0.55 2.5 3.04 2.67 4.58 1.87 0.6-0.31 1.03-0.8 1-1.54-0.04-0.64-0.08-0.67-0.66-0.36zm-4.93-6.07c-0.27 0.9-0.17 1.85-0.31 2.77-0.14 0.94-0.49 1.8-1.2 2.47-0.84 0.79-1.99 0.6-2.33-0.48-0.65-2.03-0.51-4.02 0.75-5.83 0.33-0.48 0.81-0.79 1.43-0.82 0.76-0.05 1.92 1.01 1.66 1.89z"/>
		<path class="st6" d="m110.41 48.61c-0.14 0.08-0.27 0.16-0.42 0.22-0.52 0.21-0.87 0.05-0.97-0.49-0.08-0.42-0.16-0.85-0.13-1.27 0.11-1.63 0.29-3.25 0.39-4.87 0.08-1.16 0-2.31-0.77-3.28-1.05-1.33-3.35-1.22-4.61 0.19-0.54 0.61-0.85 1.35-1.37 2.01 0-0.35 0.01-0.7 0-1.05-0.02-0.99-0.69-1.83-1.61-1.97-0.73-0.11-1.48-0.09-2.17 0.18s-1.33 0.64-1.61 1.38c-0.13 0.34-0.03 0.65 0.21 0.92 0.23 0.26 0.45 0.02 0.64-0.04 0.89-0.31 1.25-0.07 1.3 0.87 0.06 1.17-0.13 2.32-0.28 3.48-0.17 1.35-0.39 2.7-0.26 4.06 0.07 0.78 0.29 1.57 1.11 1.93 0.69 0.3 1.37 0.1 1.96-0.32 0.8-0.58 0.75-1.42 0.67-2.27-0.12-1.25-0.42-2.49 0.09-3.74 0.39-0.95 0.71-1.95 1.47-2.7 0.6-0.6 1.21-0.45 1.51 0.31 0.27 0.68 0.2 1.38 0.13 2.07-0.14 1.35-0.42 2.69-0.3 4.06 0.1 1.08 0.46 2.05 1.58 2.48 1.06 0.4 2.15 0.38 3.16-0.17 0.59-0.32 1.05-0.79 1.04-1.52 0.01-0.62-0.23-0.76-0.76-0.47z"/>
		<path class="st6" d="m125.41 44.21c-0.69-0.06-1.04 0.15-1.24 0.82-0.26 0.83-0.32 1.68-0.28 2.53 0.03 0.5-0.19 0.77-0.66 0.87-1.4 0.31-2.52 0.05-3.06-1.29-0.73-1.79-0.6-3.58 0.32-5.28 0.48-0.9 1.26-1.5 2.33-1.46 1.01 0.03 1.63 0.71 2.06 1.55 0.04 0.07 0.07 0.14 0.09 0.21 0.03 0.11 0.1 0.14 0.22 0.16 0.88 0.12 1.95-0.77 1.97-1.63 0.03-1.08-0.63-1.68-1.52-2.1-1.45-0.68-2.96-0.63-4.48-0.25-3.06 0.76-5.38 3.78-5.24 6.97-0.04 1.74 0.38 3.26 1.64 4.46 1.39 1.32 3.88 1.66 5.73 0.75 0.56-0.28 0.59-0.05 0.55 0.38-0.06 0.62-0.1 1.24-0.19 1.86-0.22 1.48-0.22 1.51 1.32 1.14 1.57-0.39 2.28-1.25 2.01-2.72-0.03-0.17-0.03-0.35-0.07-0.52-0.29-1.36-0.39-2.66 0.22-4.02 0.54-1.2-0.36-2.31-1.72-2.43z"/>
		<path class="st6" d="m151.66 40.91c1.12-0.39 1.15-0.49 0.6-1.57-0.07-0.14-0.15-0.27-0.24-0.4-0.54-0.77-1.27-1.02-2.17-0.71-1.05 0.36-1.54 1.23-1.96 2.15-0.19 0.42-0.35 0.85-0.59 1.41-0.31-0.96-0.63-1.73-1.09-2.44-1.28-1.99-4.4-1.36-5.33 0.04-0.23 0.34-0.35 0.7-0.21 1.1 0.06 0.16 0.11 0.3 0.38 0.25 1.11-0.22 1.5-0.05 2.12 0.88 0.57 0.86 0.85 1.83 1.1 2.81 0.05 0.2 0.03 0.39-0.08 0.56-0.9 1.47-2.09 2.58-3.82 3.05-0.67 0.18-0.9 0.5-0.81 1.17 0.09 0.66 0.43 1.16 1.02 1.49 0.9 0.49 2.23 0.09 3-0.88 0.59-0.76 0.92-1.63 1.21-2.52 0.04-0.12 0.01-0.31 0.21-0.3 0.18 0 0.17 0.18 0.22 0.3 0.27 0.71 0.55 1.41 0.95 2.07 1.45 2.38 4.57 1.66 5.74 0.19 0.27-0.34 0.31-0.71 0.2-1.1-0.04-0.13-0.09-0.26-0.34-0.18-1.3 0.4-1.78 0.22-2.48-0.94-0.63-1.05-0.97-2.21-1.33-3.36-0.08-0.25-0.05-0.48 0.16-0.7 0.99-1.05 2.14-1.89 3.54-2.37z"/>
		<path class="st6" d="m138.62 37.79c-1.25 0.53-2.57 0.61-3.91 0.48-0.73-0.07-1.46-0.18-2.19-0.25-1.34-0.12-2.53 0.18-3.45 1.2-0.34 0.37-0.55 0.81-0.5 1.33 0.06 0.64 0.33 0.8 0.91 0.54 0.77-0.34 1.21-0.09 1.3 0.75 0.1 0.96-0.08 1.9-0.27 2.83-0.29 1.45-0.57 2.9-0.49 4.39 0.08 1.45 0.96 2.18 2.35 1.89 0.39-0.08 0.76-0.21 1.14-0.32 0.32-0.09 0.48-0.23 0.39-0.63-0.19-0.82-0.23-1.65-0.19-2.62 0-0.28 0.02-0.69-0.01-1.1-0.03-0.5 0.13-0.64 0.66-0.5 0.96 0.27 1.93 0.47 2.93 0.18 1.02-0.29 1.5-1.11 1.25-2.05-0.12-0.43-0.32-0.53-0.73-0.39-1.14 0.38-2.29 0.39-3.47 0.2-0.28-0.04-0.34-0.14-0.32-0.42 0.04-0.7 0.07-1.4 0.02-2.1-0.04-0.49 0.12-0.55 0.56-0.47 0.88 0.17 1.78 0.21 2.67 0.17 1.65-0.07 2.65-1.5 2.02-2.86-0.14-0.32-0.31-0.4-0.67-0.25z"/>
		<path class="st6" d="m66.13 38.85c0.06-0.23 0.01-0.36-0.24-0.43-0.53-0.16-1.05-0.35-1.59-0.32-1.01 0-1.39 0.27-1.7 1.39-0.9 3.2-1.18 6.46-0.76 9.76 0.16 1.29 0.85 1.88 1.92 1.73 0.53-0.08 1.04-0.26 1.51-0.51 0.26-0.14 0.39-0.28 0.29-0.64-0.36-1.25-0.36-2.54-0.34-3.82 0.03-2.42 0.31-4.81 0.91-7.16z"/>
	<g class="st2">
		<path class="st3" d="m51 48.66c5.57-5.91 5.57-15.5 0-21.41l-3.56-3.78c-1.67-1.78-1.67-4.65 0-6.42 0.78-0.82 1.75-1.26 2.76-1.33 1.03-0.04 2.03-0.48 2.81-1.32 1.67-1.78 1.67-4.65 0-6.42-10.02-10.64-26.28-10.64-36.3 0s-10.02 27.9 0 38.54 25.38 11.61 34.29 2.14z"/>
	</g>
	<g class="st4">
		<path class="st5" d="m9.2 55.28c5.08 0 9.2-4.12 9.2-9.2v-9.2c0-5.08-4.12-9.2-9.2-9.2s-9.2 4.12-9.2 9.2v9.2c0 5.09 4.12 9.2 9.2 9.2z"/>
		<path class="st5" d="m10.87 3.47l6.16 12.32c0.62 1.25-0.28 2.72-1.68 2.72h-12.31c-1.39 0-2.3-1.47-1.68-2.72l6.16-12.32c0.69-1.39 2.66-1.39 3.35 0z"/>
	</g>
		<path class="st6" d="m89.56 24.85c-0.03-0.18-0.06-0.36-0.09-0.55-0.03-0.18-0.07-0.35-0.1-0.5s-0.06-0.28-0.08-0.38-0.04-0.16-0.05-0.19l-1.19 0.36c0.01 0.06 0.04 0.14 0.06 0.25 0.03 0.11 0.06 0.23 0.08 0.36s0.06 0.28 0.09 0.43 0.06 0.3 0.08 0.45 0.04 0.28 0.06 0.41 0.02 0.23 0.02 0.32c0 0.23-0.04 0.4-0.11 0.53s-0.15 0.22-0.25 0.29c-0.1 0.06-0.19 0.1-0.29 0.12-0.1 0.01-0.17 0.02-0.22 0.02h-2.56c-0.26 0-0.49-0.04-0.69-0.12s-0.39-0.19-0.57-0.34-0.36-0.34-0.55-0.56c-0.18-0.22-0.38-0.48-0.6-0.77l-2.23-2.98 4.54-2.09-0.52-1.16-5.19 2.39-0.23 1.08c0.15 0.17 0.31 0.35 0.49 0.56s0.36 0.43 0.54 0.66 0.36 0.46 0.53 0.69 0.33 0.45 0.46 0.67c0.13 0.21 0.24 0.41 0.32 0.58 0.08 0.18 0.12 0.32 0.12 0.44 0 0.05-0.01 0.11-0.02 0.16-0.01 0.06-0.03 0.11-0.05 0.15-0.06 0.09-0.14 0.18-0.26 0.26-0.11 0.08-0.25 0.15-0.4 0.2-0.15 0.06-0.32 0.1-0.51 0.13s-0.38 0.05-0.59 0.05h-2.15c-0.4 0-0.69-0.07-0.87-0.22s-0.28-0.38-0.29-0.71v-1.79h-1.26v1.74c0 0.19-0.03 0.35-0.1 0.48s-0.15 0.23-0.25 0.3-0.2 0.13-0.31 0.16-0.21 0.05-0.3 0.05c-0.37 0-0.63-0.07-0.8-0.23-0.17-0.15-0.25-0.39-0.26-0.71v-1.79h-1.21v1.74c0 0.19-0.03 0.35-0.1 0.48s-0.15 0.23-0.25 0.31-0.21 0.13-0.32 0.16-0.21 0.05-0.3 0.05c-0.15 0-0.29-0.01-0.43-0.04s-0.26-0.09-0.37-0.2c-0.11-0.1-0.2-0.26-0.26-0.46-0.07-0.2-0.1-0.48-0.1-0.83v-1.21h-1.26v4.06c0 0.28-0.03 0.52-0.08 0.74s-0.15 0.41-0.3 0.56-0.36 0.27-0.62 0.35c-0.27 0.08-0.61 0.12-1.04 0.12h-1.28c-0.39 0-0.74-0.08-1.05-0.24s-0.56-0.4-0.75-0.7c-0.13-0.2-0.22-0.41-0.29-0.62-0.06-0.21-0.1-0.46-0.1-0.75 0-0.41 0.07-0.84 0.2-1.29s0.33-0.95 0.59-1.49l-1.14-0.55c-0.3 0.63-0.53 1.22-0.68 1.77s-0.23 1.08-0.23 1.58c0 0.4 0.05 0.76 0.15 1.09s0.24 0.65 0.42 0.94c0.15 0.23 0.33 0.44 0.54 0.63s0.44 0.35 0.68 0.48c0.25 0.13 0.51 0.24 0.79 0.31s0.57 0.11 0.86 0.11h1.28c1.1 0 1.92-0.25 2.48-0.74s0.83-1.26 0.83-2.29v-0.33c0.33 0.17 0.72 0.26 1.16 0.26 0.27 0 0.54-0.05 0.8-0.14 0.26-0.1 0.49-0.23 0.69-0.39l0.04-0.04c0.01-0.02 0.03-0.03 0.04-0.04 0.4 0.41 0.97 0.62 1.71 0.62 0.27 0 0.54-0.05 0.8-0.14 0.26-0.1 0.49-0.23 0.69-0.39l0.04-0.04c0.01-0.02 0.03-0.03 0.04-0.04 0.4 0.41 1.01 0.62 1.82 0.62h2.07c0.3 0 0.6-0.03 0.88-0.08 0.29-0.05 0.54-0.12 0.77-0.22 0.13-0.06 0.25-0.13 0.37-0.21s0.23-0.16 0.33-0.26c0.1-0.09 0.19-0.19 0.27-0.3 0.08-0.1 0.15-0.21 0.2-0.31 0.18 0.2 0.35 0.38 0.52 0.55s0.35 0.31 0.55 0.43 0.43 0.21 0.68 0.28c0.24 0.06 0.52 0.09 0.83 0.1v0.01h2.57c0.25 0 0.51-0.04 0.76-0.13s0.48-0.22 0.68-0.4 0.37-0.41 0.49-0.69c0.13-0.28 0.19-0.61 0.19-0.99 0-0.13-0.01-0.28-0.03-0.45-0.01-0.19-0.04-0.37-0.07-0.55z"/>
		<polygon class="st6" points="87.63 30.17 88.54 31.1 89.46 30.17 88.53 29.24"/>
		<polygon class="st6" points="85.43 30.16 86.34 31.09 87.27 30.16 86.33 29.23"/>
		<rect class="st6" x="90.69" y="19.73" width="1.26" height="8.32"/>
		<path class="st6" d="m106.1 23.36c-0.07-0.24-0.17-0.46-0.29-0.67-0.12-0.2-0.27-0.38-0.44-0.53s-0.37-0.26-0.6-0.35c-0.23-0.08-0.49-0.12-0.79-0.12-0.32 0-0.62 0.06-0.89 0.17s-0.51 0.27-0.7 0.47c-0.2 0.2-0.35 0.43-0.46 0.71s-0.16 0.57-0.16 0.89c0 0.29 0.04 0.55 0.11 0.76 0.07 0.22 0.17 0.4 0.29 0.56 0.12 0.15 0.27 0.28 0.43 0.38s0.34 0.18 0.52 0.23c0.19 0.06 0.38 0.1 0.57 0.12 0.2 0.02 0.39 0.03 0.58 0.03h0.78c-0.02 0.09-0.06 0.18-0.12 0.27s-0.16 0.17-0.31 0.25-0.34 0.14-0.58 0.18c-0.24 0.05-0.56 0.07-0.94 0.07h-5.61c-0.05 0-0.13-0.01-0.23-0.03s-0.2-0.06-0.3-0.13-0.18-0.17-0.26-0.3c-0.07-0.13-0.11-0.32-0.11-0.55 0-0.12 0.01-0.27 0.04-0.44s0.06-0.34 0.1-0.51 0.08-0.32 0.12-0.47c0.04-0.14 0.07-0.26 0.1-0.34l-0.61-0.19-0.6-0.19c-0.01 0.03-0.04 0.13-0.09 0.28s-0.09 0.33-0.14 0.54-0.09 0.43-0.13 0.66-0.06 0.45-0.06 0.64c0 0.22 0.02 0.42 0.06 0.6s0.1 0.34 0.16 0.48c0.07 0.14 0.14 0.26 0.22 0.37s0.16 0.19 0.24 0.27c0.2 0.18 0.42 0.32 0.67 0.42s0.51 0.14 0.8 0.14h5.68c0.4 0 0.78-0.04 1.15-0.1 0.39-0.07 0.73-0.19 1.03-0.37s0.53-0.42 0.71-0.72 0.27-0.67 0.27-1.12v-0.8c0-0.28-0.02-0.55-0.05-0.82-0.04-0.25-0.09-0.5-0.16-0.74zm-1.84 1.39h-0.49c-0.16 0-0.31-0.03-0.43-0.07-0.13-0.05-0.23-0.13-0.31-0.24s-0.12-0.28-0.12-0.5c0-0.18 0.03-0.33 0.1-0.46 0.07-0.12 0.15-0.23 0.26-0.3 0.1-0.08 0.22-0.13 0.35-0.16s0.25-0.05 0.37-0.05c0.23 0 0.41 0.05 0.54 0.15s0.24 0.23 0.31 0.4 0.13 0.36 0.15 0.57c0.03 0.21 0.05 0.44 0.07 0.67h-0.8z"/>
		<polygon class="st6" points="104.99 19.48 104.01 18.5 103.05 19.47 104.02 20.45"/>
		<rect class="st6" x="107.37" y="19.73" width="1.26" height="8.32"/>
		<path class="st6" d="m127.17 24.29c-0.32-0.12-0.61-0.23-0.85-0.32s-0.46-0.17-0.65-0.24-0.36-0.14-0.53-0.2-0.34-0.13-0.52-0.18c-0.17-0.06-0.37-0.12-0.58-0.19-0.24-0.08-0.47-0.12-0.67-0.12-0.09 0-0.18 0.01-0.27 0.02-0.27 0.05-0.51 0.16-0.72 0.32-0.2 0.16-0.37 0.36-0.51 0.59-0.14 0.24-0.25 0.48-0.33 0.74l1.17 0.35c0.06-0.17 0.13-0.3 0.21-0.41s0.17-0.19 0.27-0.24 0.22-0.07 0.36-0.07c0.13 0 0.29 0.03 0.46 0.08l2.88 1.01c-0.18 0.1-0.38 0.21-0.61 0.31-0.23 0.11-0.47 0.21-0.73 0.31s-0.53 0.19-0.81 0.28-0.56 0.17-0.85 0.23c-0.29 0.07-0.57 0.12-0.86 0.16s-0.57 0.06-0.84 0.06h-5.36l-0.04 1.26c0.27 0.01 0.53 0.03 0.8 0.07 0.26 0.03 0.51 0.08 0.74 0.14s0.44 0.13 0.62 0.22 0.33 0.2 0.44 0.33c-0.01 0.16-0.08 0.31-0.2 0.45s-0.29 0.26-0.49 0.37c-0.21 0.1-0.44 0.19-0.72 0.25-0.27 0.06-0.56 0.09-0.87 0.09h-1.48c-0.39 0-0.74-0.08-1.06-0.24s-0.57-0.4-0.76-0.7c-0.25-0.4-0.38-0.89-0.38-1.46 0-0.2 0.01-0.4 0.04-0.61s0.07-0.42 0.13-0.65 0.14-0.46 0.23-0.7 0.2-0.5 0.33-0.78l-1.12-0.54c-0.31 0.64-0.53 1.22-0.67 1.76-0.14 0.53-0.2 1.05-0.2 1.55 0 0.81 0.19 1.51 0.56 2.12 0.16 0.24 0.34 0.45 0.55 0.64s0.43 0.35 0.68 0.48 0.51 0.24 0.79 0.31 0.58 0.11 0.89 0.11h1.48c0.49 0 0.95-0.05 1.39-0.16 0.43-0.11 0.81-0.26 1.14-0.46s0.58-0.43 0.77-0.71 0.29-0.59 0.29-0.94c0-0.15-0.03-0.3-0.1-0.46s-0.17-0.31-0.31-0.46h1.91c0.5 0 0.99-0.05 1.49-0.16s0.98-0.24 1.43-0.41c0.46-0.16 0.89-0.34 1.29-0.53s0.75-0.37 1.05-0.54 0.54-0.31 0.72-0.43 0.28-0.18 0.31-0.2l-0.15-1.06c-0.48-0.17-0.86-0.31-1.18-0.44z"/>
			<rect class="st6" transform="matrix(.711 -.7032 .7032 .711 14.876 96.26)" x="123.87" y="29.34" width="1.37" height="1.38"/>
			<rect class="st6" transform="matrix(.7071 -.7071 .7071 .7071 23.037 102.84)" x="134.97" y="22.92" width="1.37" height="1.38"/>
		<path class="st6" d="m137.95 28.02c0 0.28-0.03 0.53-0.08 0.76s-0.15 0.42-0.3 0.59c-0.15 0.16-0.36 0.29-0.62 0.38-0.27 0.09-0.61 0.13-1.04 0.13h-1.17c-0.39 0-0.74-0.08-1.05-0.24s-0.56-0.4-0.75-0.7c-0.25-0.4-0.38-0.88-0.38-1.45 0-0.2 0.01-0.4 0.04-0.6s0.07-0.41 0.13-0.62 0.14-0.44 0.23-0.67c0.1-0.23 0.21-0.48 0.34-0.75l-1.14-0.54c-0.15 0.31-0.28 0.6-0.39 0.88s-0.2 0.55-0.27 0.8c-0.07 0.26-0.12 0.51-0.16 0.76-0.03 0.25-0.05 0.49-0.05 0.74 0 0.39 0.05 0.77 0.15 1.12 0.1 0.36 0.24 0.69 0.42 0.98 0.15 0.24 0.33 0.46 0.54 0.65s0.43 0.35 0.68 0.48c0.24 0.13 0.51 0.23 0.78 0.3 0.28 0.07 0.57 0.1 0.87 0.1h1.17c1.1 0 1.92-0.26 2.48-0.78s0.83-1.3 0.83-2.34v-3.98h-1.26v4z"/>
		<rect class="st6" x="140.21" y="19.73" width="1.26" height="8.32"/>
		<path class="st6" d="m150.22 24.85c-0.03-0.18-0.06-0.36-0.09-0.55-0.03-0.18-0.07-0.35-0.1-0.5s-0.06-0.28-0.08-0.38-0.04-0.16-0.05-0.19l-1.19 0.36c0.01 0.06 0.04 0.14 0.06 0.25 0.03 0.11 0.06 0.23 0.08 0.36s0.06 0.28 0.09 0.43 0.06 0.3 0.08 0.45 0.04 0.28 0.06 0.41 0.02 0.23 0.02 0.32c0 0.23-0.04 0.4-0.11 0.53s-0.15 0.22-0.25 0.29c-0.1 0.06-0.19 0.1-0.29 0.12-0.1 0.01-0.17 0.02-0.22 0.02h-2.53c-0.04 0-0.11-0.01-0.21-0.03s-0.21-0.06-0.31-0.13-0.2-0.16-0.29-0.28c-0.08-0.12-0.12-0.28-0.12-0.47v-1.81h-1.26v3.6c0 0.4-0.04 0.75-0.13 1.03s-0.22 0.51-0.4 0.69c-0.18 0.17-0.41 0.3-0.69 0.38s-0.61 0.12-1 0.12h-0.8v1.26h0.8c0.53 0 1.01-0.08 1.42-0.24 0.42-0.16 0.78-0.38 1.08-0.67s0.53-0.65 0.7-1.06c0.17-0.42 0.26-0.88 0.29-1.4 0.15 0.13 0.31 0.2 0.46 0.23 0.12 0.02 0.26 0.03 0.4 0.03v0.01h2.56c0.25 0 0.51-0.04 0.76-0.13s0.48-0.22 0.68-0.4 0.37-0.41 0.49-0.69c0.13-0.28 0.19-0.61 0.19-0.99 0-0.13-0.01-0.28-0.03-0.45-0.02-0.16-0.04-0.34-0.07-0.52z"/>
		<polygon class="st6" points="148.28 30.17 149.2 31.1 150.12 30.17 149.18 29.24"/>
		<polygon class="st6" points="146.09 30.16 147 31.09 147.92 30.16 146.99 29.23"/>
		<rect class="st6" x="151.35" y="19.73" width="1.26" height="8.32"/>
</svg>
